<svg width="203" height="55" viewBox="0 0 203 55" xmlns="http://www.w3.org/2000/svg"><g fill="none" fill-rule="evenodd"><path d="M190.104 32.89l7.094 8.248 5.471.012-8.639-10 7.854-9.726h-5.485l-6.295 7.833V12l-5.485 1.57.013 27.568 5.472.012v-8.26zm-21.205-9.206v-2.26h-5.485l-.016 1.57.03 18.144 5.471.012V27.69c.804-1.38 2.227-3.119 4.287-3.119 3.413 0 3.589 3.362 3.589 3.362v13.205l4.69.012V26.136s-.866-5.686-7.175-5.45c0 0-3.525.582-5.39 2.998zm-26.776.91l4.013-2.91-.018-8.025 5.478-1.624.013 6.49 2.8-1.92a3.848 3.848 0 1 1 1.175 2.15l-11.997 8.188c.607 1.335.946 2.819.946 4.382 0 5.855-4.747 10.602-10.603 10.602-5.855 0-10.602-4.747-10.602-10.602 0-5.856 4.747-10.603 10.602-10.603 3.3 0 6.249 1.508 8.193 3.873zM55 41.902L65.577 13.64h5.08l10.29 28.238h-5.023l-2.861-7.325h-10l-2.491 7.35H55zm9.178-11.758h7.802L68 19.759l-3.822 10.384zm30.154-4.145s-1.75-1.446-4.82-1.446c-3.07 0-3.095 1.446-3.095 2.453 0 1.706 2.123 1.867 4.808 2.923 2.685 1.055 4.654 1.591 4.654 5.887 0 4.296-4.001 6.485-8.617 6.152-4.616-.334-5.538-1.544-5.538-1.544v-3.992s3.597 1.587 5.863 1.684c2.267.096 3.638.022 3.638-2.13 0-2.15-1.792-1.806-4.808-3.307-3.016-1.5-4.693-2.895-4.693-5.673s1.69-6.283 7.789-6.283c4.663 0 4.819 1.106 4.819 1.106v4.17zm5.443-9.141l4.735-1.631v6.26h4.757v3.93h-4.76V36.37s-.09 1.743 2.335 1.743 2.379-1.673 2.379-1.673v4.093c0 .547-2.571 1.416-4.76 1.416-6.032 0-4.657-4.8-4.657-4.8V25.47h-3.995v-4.015h4.044v-4.598h-.078zm16.78 4.609v2.632s2.151-3.077 4.858-3.077c1.332 0 1.926.434 1.926.434v4.587s-1.153-.86-2.321-.86c-2.768 0-4.377 2.354-4.377 4.108v12.101h-5.11V21.455l5.025.011zm17.297 15.592a5.812 5.812 0 1 0 0-11.623 5.812 5.812 0 0 0 0 11.623zm24.317-19.045a2.11 2.11 0 1 0 0-4.22 2.11 2.11 0 0 0 0 4.22zm-12.032 8.683l5.484-3.701V41.15l-5.47-.012-.03-14.4.016-.042zm8.639-5.272h5.484V41.15l-5.47-.012-.03-18.143.016-1.57z" fill="#FFF"/><path d="M44.1 16.05a4.408 4.408 0 0 1-2.605-.857l-9.932 8.475a10.2 10.2 0 0 1 .927 4.193c0 .721-.088 1.397-.22 2.073l4.944.632c.662-2.345 2.78-4.058 5.253-4.058 3.046 0 5.474 2.48 5.474 5.59 0 3.066-2.473 5.59-5.474 5.59-2.87 0-5.253-2.299-5.474-5.184l-5.342-.676a9.548 9.548 0 0 1-2.295 3.29l6.312 9.333a4.48 4.48 0 0 1 1.325-.18c2.825 0 5.165 2.344 5.165 5.274 0 2.885-2.296 5.275-5.165 5.275-2.825 0-5.165-2.345-5.165-5.275 0-1.713.795-3.246 2.075-4.193l-6.092-9.016c-1.457.902-3.134 1.398-4.988 1.398a9.69 9.69 0 0 1-5.607-1.804l-7.195 6.177c.353.676.574 1.397.574 2.209 0 2.524-2.031 4.598-4.503 4.598s-4.503-2.074-4.503-4.598c0-2.525 2.03-4.599 4.503-4.599 1.015 0 1.942.316 2.649.902l7.018-5.996a9.81 9.81 0 0 1-2.472-5.14l-2.737-.36c-.264 2.615-2.472 4.688-5.12 4.688-2.825 0-5.165-2.344-5.165-5.274 0-2.885 2.295-5.275 5.165-5.275a5.104 5.104 0 0 1 4.944 3.832l2.781.36a10.116 10.116 0 0 1 3.664-7.347l-5.783-8.566c-.706.316-1.545.541-2.384.541-3.222 0-5.783-2.66-5.783-5.906C2.87 2.93 5.474.27 8.652.27c3.223 0 5.783 2.66 5.783 5.906a6.02 6.02 0 0 1-1.81 4.283l5.827 8.61a9.484 9.484 0 0 1 4.37-1.036c3.179 0 5.96 1.533 7.726 3.967l9.623-8.205a4.468 4.468 0 0 1-.618-2.3c0-2.524 2.03-4.597 4.503-4.597 2.472 0 4.503 2.073 4.503 4.598.044 2.48-1.987 4.553-4.459 4.553zm-19.335-.677c-2.472 0-4.503-2.074-4.503-4.598 0-2.525 2.03-4.599 4.503-4.599 2.472 0 4.503 2.074 4.503 4.599 0 2.524-1.987 4.598-4.503 4.598zm-3.223 27.59c2.472 0 4.503 2.074 4.503 4.598 0 2.525-2.03 4.599-4.503 4.599-2.472 0-4.502-2.074-4.502-4.599 0-2.524 2.03-4.598 4.502-4.598z" fill="#8845AF"/><path d="M44.1 16.05a4.408 4.408 0 0 1-2.605-.857l-9.932 8.475a10.2 10.2 0 0 1 .927 4.193c0 1.172-.22 2.299-.574 3.336l5.077.676c.485 2.615 2.737 4.553 5.43 4.553 2.825 0 5.164-2.164 5.473-4.914.045.226.045.406.045.631 0 3.066-2.473 5.59-5.474 5.59-2.87 0-5.253-2.299-5.474-5.184l-5.342-.676a9.548 9.548 0 0 1-2.295 3.29l6.312 9.333a4.48 4.48 0 0 1 1.325-.18c2.825 0 5.165 2.344 5.165 5.274 0 2.885-2.296 5.275-5.165 5.275-2.825 0-5.165-2.345-5.165-5.275a5.249 5.249 0 0 1 3.31-4.914l-6.18-9.151c-1.677 1.397-3.796 2.254-6.135 2.254a9.69 9.69 0 0 1-5.607-1.804l-7.195 6.177c.353.676.574 1.397.574 2.209 0 2.524-2.031 4.598-4.503 4.598-1.413 0-2.649-.676-3.487-1.713.794.631 1.765 1.037 2.869 1.037 2.472 0 4.503-2.074 4.503-4.599a4.679 4.679 0 0 0-1.148-3.065l6.975-5.951a9.81 9.81 0 0 1-2.472-5.14l-2.737-.36c-.265 2.615-2.472 4.689-5.121 4.689-2.825 0-5.165-2.345-5.165-5.275 0-.225 0-.45.044-.676.31 2.57 2.516 4.598 5.165 4.598a5.196 5.196 0 0 0 5.077-4.057v.045l2.604.36c-.044-.315-.044-.586-.044-.901 0-3.652 1.942-6.853 4.856-8.566l-5.739-8.475c.883-1.082 1.457-2.48 1.457-4.012C13.729 3.516 11.08.81 7.814.81c-.795 0-1.546.136-2.208.451.884-.539 1.944-.9 3.046-.9 3.223 0 5.783 2.66 5.783 5.905a6.02 6.02 0 0 1-1.81 4.283l5.827 8.61a9.484 9.484 0 0 1 4.37-1.036c3.179 0 5.96 1.533 7.726 3.967l9.623-8.205c.883.676 2.03 1.037 3.267 1.037 2.604 0 4.767-1.758 5.12-4.012.045.225.045.45.045.631 0 2.434-2.03 4.508-4.503 4.508zm-21.233 2.614c-3.532 0-6.225 2.119-7.417 4.869-1.236 2.885 7.637 2.344 9.227 5.906.97 2.163-1.854 4.553-1.854 5.86 0 .947 2.516.992 3.62.496 3.222-1.443 5.43-4.102 5.43-7.934.043-5.14-4.018-9.197-9.006-9.197zm1.898-3.291c-2.472 0-4.503-2.074-4.503-4.598 0-2.525 2.03-4.599 4.503-4.599 2.472 0 4.503 2.074 4.503 4.599 0 2.524-1.987 4.598-4.503 4.598zm-3.223 35.48c2.252 0 4.15-1.714 4.459-3.923.044.226.044.451.044.677 0 2.524-2.03 4.598-4.503 4.598-2.472 0-4.502-2.074-4.502-4.598 0-.226 0-.451.044-.677.309 2.21 2.207 3.922 4.458 3.922z" fill="#6A308B"/><path d="M22.867 18.484h-.089c-4.9.045-8.873 4.102-8.917 9.061v.09c0 1.713 1.369 3.11 3.046 3.11a3.055 3.055 0 0 0 3.046-2.975c0-12.036 9.27-5.41 8.873-6.446-.618-1.533-3.752-2.84-5.96-2.84zM8.034.902H7.99c-2.516.45-4.238 2.84-3.84 5.41v.045a1.592 1.592 0 0 0 1.81 1.352c.838-.135 1.412-.947 1.324-1.803C6.4.136 10.33 2.299 10.33 1.668c0-.406-1.192-.947-2.296-.766zM4.37 28.627c.177-5.816 3.62-2.975 3.753-3.607.088-.45-.972-1.172-2.12-1.217H5.96c-2.56-.045-4.679 1.984-4.767 4.599v.045c-.044.901.662 1.668 1.545 1.668a1.552 1.552 0 0 0 1.633-1.488zm31.784 16.23s-.044 0 0 0a4.283 4.283 0 0 0-3.487 4.868v.045c.132.812.838 1.353 1.633 1.218a1.459 1.459 0 0 0 1.192-1.623c-.574-4.599 2.737-3.246 2.737-3.787 0-.406-1.06-.902-2.075-.721zm9.535-16.095c-1.5-1.803-4.15-2.028-5.96-.496l-.043.045c-.618.541-.707 1.488-.177 2.074.486.586 1.368.722 1.986.226 3.576-2.886 4.194.721 4.68.405.353-.225.22-1.397-.486-2.254zM23.264 43.865s0-.045 0 0c-1.766-.902-4.017-.226-5.032 1.533v.045a1.187 1.187 0 0 0 .485 1.668c.574.315 1.324.09 1.678-.496 2.074-3.381 3.62-.812 3.884-1.172.265-.316-.22-1.173-1.015-1.578zm-16.2-3.697c-1.943-.45-3.93.766-4.504 2.66v.045c-.176.676.177 1.352.84 1.488.617.135 1.323-.226 1.544-.857 1.236-3.787 3.311-1.668 3.532-2.074.088-.315-.53-1.037-1.413-1.262zm38.67-32.459s-.045 0 0 0c-1.987-.857-4.239.09-5.121 2.074v.045c-.31.676.044 1.488.706 1.758.662.27 1.413 0 1.722-.676 1.765-3.877 3.708-1.172 3.973-1.623.176-.27-.398-1.217-1.28-1.578zm-24.192 4.102c.265.496.883.632 1.369.316.441-.27.618-.857.353-1.352-1.5-2.48.883-2.795.75-3.156-.088-.27-.882-.27-1.5.09h-.045c-1.324.902-1.721 2.705-.927 4.102z" fill="#FFF" opacity=".3"/></g></svg>